Coordinates
version=1
nRows=16
nColumns=22
inDegrees=yes

Units are S.I. units (second, meters, Newtons, ...)
If the header above contains a line with 'inDegrees', this indicates whether rotational values are in degrees (yes) or radians (no).

endheader
time	pelvis_tilt	pelvis_list	pelvis_rotation	pelvis_tx	pelvis_ty	pelvis_tz	hip_flexion_r	hip_adduction_r	hip_rotation_r	knee_angle_r	ankle_angle_r	subtalar_angle_r	hip_flexion_l	hip_adduction_l	hip_rotation_l	knee_angle_l	ankle_angle_l	subtalar_angle_l	lumbar_extension	lumbar_bending	lumbar_rotation
      0.75000000	     -0.73199404	     -0.60972013	     19.57186704	     -0.40288112	      0.91461524	      0.52988352	     27.53793254	     -2.34384148	      8.03546158	    -11.21707459	      3.23301764	     10.62817843	     -8.20160440	      6.36430370	      5.99672031	    -13.43440597	     19.36827363	     -9.41448026	     -9.02976666	     -4.99106191	    -11.11565416
      0.76000000	     -0.65186517	     -0.52573375	     20.07780826	     -0.39416070	      0.91270350	      0.52725238	     27.33484465	     -2.42760108	      7.68948133	     -9.65183350	      3.10170234	     10.87021286	     -9.02054950	      6.25637884	      6.38336002	    -13.33995861	     19.72367859	     -9.36970386	     -9.15028187	     -5.05272739	    -11.30500921
      0.77000000	     -0.56304171	     -0.46223175	     20.60847048	     -0.38540676	      0.91078571	      0.52453122	     27.19706110	     -2.47811153	      7.20646729	     -8.58135290	      3.06633258	     10.93924548	     -9.75824846	      6.12325376	      6.77151490	    -13.40462145	     20.09087740	     -9.37068709	     -9.28178486	     -5.07535602	    -11.49946601
      0.78000000	     -0.51816410	     -0.44124252	     21.16246728	     -0.37661121	      0.90879243	      0.52171945	     27.19791048	     -2.49129639	      6.61757606	     -8.03820131	      3.10612625	     10.88317423	    -10.33773772	      5.96542412	      7.14098970	    -13.65763017	     20.48708009	     -9.37746529	     -9.34643672	     -5.05591771	    -11.73138019
      0.79000000	     -0.38296405	     -0.43720978	     21.71199143	     -0.36769205	      0.90699100	      0.51882875	     27.13761151	     -2.43384797	      6.05357834	     -7.92510008	      3.21552559	     10.62165598	    -10.95755900	      5.76015257	      7.49971499	    -14.00490762	     20.83557750	     -9.48038601	     -9.50260343	     -4.97061589	    -11.89289038
      0.80000000	     -0.30559760	     -0.49134608	     22.27483200	     -0.35869358	      0.90513630	      0.51586130	     27.20355692	     -2.33001264	      5.54031156	     -8.25731787	      3.32586670	     10.33530695	    -11.40401690	      5.52191805	      7.82268052	    -14.52940031	     21.18315705	     -9.56720049	     -9.56249579	     -4.83668405	    -12.04944008
      0.81000000	     -0.23205043	     -0.58763399	     22.82045137	     -0.34953211	      0.90335169	      0.51282916	     27.30527365	     -2.16195666	      5.17743500	     -8.94611920	      3.38214531	      9.92693486	    -11.79109066	      5.24764601	      8.09893584	    -15.13626391	     21.49958682	     -9.70298087	     -9.58072635	     -4.65114088	    -12.17877895
      0.82000000	     -0.15743121	     -0.74974737	     23.33949778	     -0.34016225	      0.90166428	      0.50975962	     27.42245586	     -1.90091999	      4.99652689	     -9.89811412	      3.35269687	      9.62323020	    -12.11903147	      4.90782256	      8.31713228	    -15.81525039	     21.75348220	     -9.80441777	     -9.54373835	     -4.39455735	    -12.24317116
      0.83000000	     -0.14216650	     -0.93778268	     23.82268526	     -0.33065492	      0.90005290	      0.50670481	     27.61118582	     -1.59546962	      5.05670481	    -11.05574048	      3.12059938	      9.06360409	    -12.34394941	      4.57344046	      8.53803997	    -16.55428856	     21.91533102	     -9.97881029	     -9.41532195	     -4.14591716	    -12.24934124
      0.84000000	     -0.09209499	     -1.21912285	     24.27114287	     -0.32089424	      0.89866741	      0.50361521	     27.76864444	     -1.15218909	      5.27928267	    -12.30884508	      2.72329163	      8.74342611	    -12.55749863	      4.12804013	      8.70664031	    -17.31097755	     21.95636879	    -10.05697742	     -9.24416528	     -3.78513854	    -12.18176029
      0.85000000	     -0.09179497	     -1.54909067	     24.66603299	     -0.31098254	      0.89743778	      0.50055849	     28.00679602	     -0.63451642	      5.68910101	    -13.66039932	      2.15391009	      8.33934477	    -12.67743795	      3.66274198	      8.86537548	    -18.10043460	     21.86185917	    -10.09551069	     -8.97760764	     -3.40772853	    -12.05466945
      0.86000000	     -0.09478875	     -1.93507341	     25.01047583	     -0.30088727	      0.89645711	      0.49748177	     28.29241032	     -0.03032186	      6.17170971	    -15.09635724	      1.50881021	      7.98511339	    -12.75933129	      3.15049712	      9.01319654	    -18.89931354	     21.60164249	    -10.05505814	     -8.65465878	     -2.97803021	    -11.86468739
      0.87000000	     -0.14349025	     -2.38558840	     25.30351547	     -0.29062781	      0.89564568	      0.49435047	     28.68890406	      0.63659443	      6.65168971	    -16.62444746	      0.92513433	      7.62823546	    -12.74654706	      2.61173456	      9.17466543	    -19.72908051	     21.19997262	     -9.85220220	     -8.22318950	     -2.50570482	    -11.60901823
      0.88000000	     -0.09885822	     -2.85153264	     25.56321062	     -0.28020539	      0.89528934	      0.49108231	     28.98565524	      1.35378059	      7.06888596	    -18.14634695	      0.32055136	      7.43287903	    -12.79476961	      2.02713682	      9.28575312	    -20.58332113	     20.52652828	     -9.69993344	     -7.86353031	     -1.96148990	    -11.35450952
      0.89000000	     -0.13300624	     -3.35466942	     25.78950678	     -0.26965991	      0.89502722	      0.48765200	     29.40355920	      2.04905468	      7.34043758	    -19.73741698	     -0.04096101	      7.23913247	    -12.70238644	      1.47016534	      9.44812112	    -21.51152670	     19.71744631	     -9.22171047	     -7.37283825	     -1.40968241	    -11.03994576
      0.90000000	     -0.05672124	     -3.85752611	     26.00743041	     -0.25898511	      0.89521145	      0.48399437	     29.63056135	      2.74807495	      7.48787164	    -21.19726049	     -0.32713549	      7.18960436	    -12.66337524	      0.88379446	      9.57477302	    -22.51743499	     18.67638252	     -8.90171423	     -6.98207145	     -0.78435282	    -10.72587144
